<?xml version="1.0" standalone="no"?><!DOCTYPE svg PUBLIC "-//W3C//DTD SVG 1.1//EN" "http://www.w3.org/Graphics/SVG/1.1/DTD/svg11.dtd"><svg width="100%" height="100%" viewBox="0 0 59 59" version="1.1" xmlns="http://www.w3.org/2000/svg" xmlns:xlink="http://www.w3.org/1999/xlink" xml:space="preserve" style="fill-rule:evenodd;clip-rule:evenodd;stroke-linejoin:round;stroke-miterlimit:1.41421;"><path d="M53.981,1.84l0.217,0.028l0.213,0.047l0.208,0.066l0.201,0.083l0.194,0.101l0.184,0.117l0.173,0.133l0.16,0.147l0.148,0.161l0.132,0.173l0.118,0.184l0.1,0.194l0.084,0.201l0.065,0.208l0.048,0.213l0.028,0.216l0.01,0.218l-0.01,0.218l-0.028,0.216l-0.048,0.213l-0.065,0.208l-0.084,0.202l-0.1,0.193l-0.118,0.184l-0.132,0.173l-0.148,0.161l-49.433,49.433l-0.161,0.148l-0.173,0.133l-0.184,0.117l-0.193,0.101l-0.202,0.083l-0.208,0.066l-0.213,0.047l-0.216,0.028l-0.218,0.01l-0.218,-0.01l-0.216,-0.028l-0.213,-0.047l-0.208,-0.066l-0.202,-0.083l-0.193,-0.101l-0.184,-0.117l-0.173,-0.133l-0.161,-0.148l-0.147,-0.16l-0.133,-0.173l-0.117,-0.184l-0.101,-0.194l-0.083,-0.201l-0.066,-0.208l-0.047,-0.213l-0.028,-0.216l-0.01,-0.218l0.01,-0.218l0.028,-0.216l0.047,-0.213l0.066,-0.208l0.083,-0.202l0.101,-0.193l0.117,-0.184l0.133,-0.173l0.147,-0.161l49.434,-49.434l0.161,-0.147l0.173,-0.133l0.184,-0.117l0.193,-0.101l0.202,-0.083l0.208,-0.066l0.212,-0.047l0.217,-0.028l0.218,-0.01l0.217,0.01Z" style="fill:#000;"/><path d="M4.548,1.84l0.216,0.028l0.213,0.047l0.208,0.066l0.202,0.083l0.193,0.101l0.184,0.117l0.173,0.133l0.161,0.147l49.433,49.434l0.148,0.161l0.132,0.173l0.118,0.184l0.1,0.193l0.084,0.202l0.065,0.208l0.048,0.213l0.028,0.216l0.01,0.218l-0.01,0.218l-0.028,0.216l-0.048,0.213l-0.065,0.208l-0.084,0.201l-0.1,0.194l-0.118,0.184l-0.132,0.173l-0.148,0.16l-0.16,0.148l-0.173,0.133l-0.184,0.117l-0.194,0.101l-0.201,0.083l-0.208,0.066l-0.213,0.047l-0.217,0.028l-0.217,0.01l-0.218,-0.01l-0.217,-0.028l-0.212,-0.047l-0.208,-0.066l-0.202,-0.083l-0.193,-0.101l-0.184,-0.117l-0.173,-0.133l-0.161,-0.148l-49.434,-49.433l-0.147,-0.161l-0.133,-0.173l-0.117,-0.184l-0.101,-0.193l-0.083,-0.202l-0.066,-0.208l-0.047,-0.213l-0.028,-0.216l-0.01,-0.218l0.01,-0.218l0.028,-0.216l0.047,-0.213l0.066,-0.208l0.083,-0.201l0.101,-0.194l0.117,-0.184l0.133,-0.173l0.147,-0.161l0.161,-0.147l0.173,-0.133l0.184,-0.117l0.193,-0.101l0.202,-0.083l0.208,-0.066l0.213,-0.047l0.216,-0.028l0.218,-0.01l0.218,0.01Z" style="fill:#000;"/></svg>