<?xml version="1.0" standalone="no"?><!DOCTYPE svg PUBLIC "-//W3C//DTD SVG 1.1//EN" "http://www.w3.org/Graphics/SVG/1.1/DTD/svg11.dtd"><svg width="100%" height="100%" viewBox="0 0 292 392" version="1.1" xmlns="http://www.w3.org/2000/svg" xmlns:xlink="http://www.w3.org/1999/xlink" xml:space="preserve" style="fill-rule:evenodd;clip-rule:evenodd;stroke-linejoin:round;stroke-miterlimit:1.41421;"><path d="M262.147,6.956l0.281,0.006l0.284,0.008l0.284,0.013l0.284,0.016l0.286,0.02l0.279,0.023l0.285,0.027l0.283,0.031l0.273,0.033l0.282,0.038l0.27,0.04l0.279,0.044l0.278,0.048l0.271,0.05l0.275,0.054l0.28,0.06l0.271,0.061l0.258,0.061l0.275,0.069l0.269,0.071l0.255,0.071l0.27,0.078l0.264,0.08l0.268,0.085l0.262,0.088l0.26,0.089l0.264,0.096l0.24,0.09l0.254,0.098l0.254,0.102l0.258,0.107l0.249,0.107l0.249,0.111l0.249,0.115l0.247,0.117l0.243,0.12l0.219,0.11l0.24,0.124l0.262,0.14l0.234,0.13l0.235,0.133l0.232,0.136l0.228,0.136l0.226,0.14l0.228,0.144l0.219,0.143l0.22,0.145l0.221,0.152l0.216,0.151l0.239,0.172l0.21,0.156l0.21,0.158l0.204,0.159l0.204,0.162l0.23,0.187l0.198,0.167l0.198,0.168l0.222,0.195l0.189,0.172l0.158,0.145l0.216,0.201l0.212,0.207l0.182,0.179l0.175,0.178l0.176,0.181l0.203,0.215l0.168,0.184l0.169,0.186l0.194,0.222l0.19,0.222l0.158,0.19l0.158,0.193l0.182,0.229l0.149,0.194l0.15,0.195l0.173,0.234l0.171,0.238l0.139,0.199l0.166,0.24l0.16,0.244l0.103,0.158l0.158,0.247l0.151,0.247l0.123,0.204l0.147,0.251l0.142,0.251l0.139,0.253l0.111,0.21l0.11,0.209l0.13,0.256l0.127,0.259l0.123,0.26l0.097,0.212l0.118,0.262l0.112,0.264l0.09,0.213l0.128,0.317l0.081,0.216l0.083,0.215l0.115,0.32l0.092,0.269l0.071,0.218l0.088,0.271l0.081,0.271l0.081,0.272l0.074,0.274l0.058,0.218l0.07,0.275l0.079,0.33l0.059,0.275l0.047,0.22l0.055,0.276l0.052,0.276l0.048,0.278l0.044,0.277l0.041,0.277l0.037,0.278l0.034,0.278l0.037,0.334l0.023,0.278l0.019,0.222l0.02,0.278l0.017,0.278l0.016,0.335l0.006,0.278l0.007,0.277l0,333.475l-0.007,0.278l-0.006,0.278l-0.016,0.334l-0.017,0.278l-0.02,0.279l-0.019,0.221l-0.023,0.278l-0.037,0.334l-0.034,0.278l-0.037,0.278l-0.041,0.278l-0.044,0.277l-0.048,0.276l-0.052,0.277l-0.055,0.277l-0.047,0.219l-0.059,0.275l-0.079,0.331l-0.07,0.274l-0.058,0.218l-0.074,0.274l-0.081,0.273l-0.081,0.27l-0.088,0.271l-0.071,0.217l-0.092,0.27l-0.115,0.321l-0.083,0.214l-0.081,0.215l-0.128,0.318l-0.09,0.214l-0.112,0.263l-0.118,0.261l-0.097,0.213l-0.124,0.261l-0.125,0.257l-0.131,0.257l-0.111,0.211l-0.109,0.206l-0.14,0.255l-0.143,0.253l-0.146,0.249l-0.123,0.205l-0.151,0.247l-0.158,0.246l-0.103,0.158l-0.16,0.244l-0.166,0.241l-0.139,0.198l-0.171,0.238l-0.173,0.234l-0.15,0.195l-0.149,0.194l-0.182,0.229l-0.158,0.193l-0.157,0.189l-0.191,0.224l-0.196,0.223l-0.167,0.185l-0.168,0.183l-0.201,0.213l-0.176,0.182l-0.179,0.181l-0.18,0.178l-0.21,0.204l-0.218,0.203l-0.158,0.146l-0.191,0.173l-0.223,0.195l-0.195,0.166l-0.198,0.167l-0.228,0.186l-0.206,0.163l-0.206,0.16l-0.208,0.157l-0.207,0.154l-0.242,0.175l-0.218,0.152l-0.217,0.148l-0.222,0.147l-0.222,0.145l-0.225,0.142l-0.226,0.14l-0.228,0.137l-0.232,0.135l-0.235,0.133l-0.231,0.129l-0.265,0.142l-0.243,0.125l-0.216,0.109l-0.243,0.119l-0.247,0.117l-0.246,0.114l-0.252,0.112l-0.252,0.109l-0.252,0.104l-0.257,0.104l-0.257,0.099l-0.237,0.088l-0.261,0.095l-0.263,0.09l-0.265,0.089l-0.265,0.084l-0.264,0.08l-0.27,0.078l-0.255,0.071l-0.269,0.071l-0.272,0.068l-0.261,0.063l-0.274,0.061l-0.277,0.059l-0.275,0.054l-0.268,0.05l-0.277,0.048l-0.283,0.045l-0.27,0.039l-0.282,0.038l-0.277,0.034l-0.283,0.03l-0.281,0.027l-0.279,0.023l-0.286,0.02l-0.284,0.016l-0.28,0.013l-0.288,0.009l-0.284,0.005l-0.255,0.002l-232.666,0l-0.254,-0.002l-0.285,-0.005l-0.288,-0.009l-0.28,-0.013l-0.284,-0.016l-0.286,-0.02l-0.279,-0.023l-0.281,-0.027l-0.283,-0.03l-0.277,-0.034l-0.273,-0.036l-0.281,-0.041l-0.28,-0.045l-0.281,-0.048l-0.275,-0.052l-0.265,-0.052l-0.276,-0.059l-0.275,-0.061l-0.261,-0.063l-0.272,-0.068l-0.269,-0.071l-0.255,-0.071l-0.269,-0.078l-0.264,-0.08l-0.265,-0.084l-0.266,-0.089l-0.263,-0.09l-0.26,-0.095l-0.238,-0.088l-0.257,-0.099l-0.257,-0.104l-0.252,-0.104l-0.252,-0.109l-0.252,-0.112l-0.246,-0.114l-0.223,-0.105l-0.27,-0.131l-0.237,-0.122l-0.219,-0.112l-0.264,-0.142l-0.232,-0.129l-0.235,-0.133l-0.231,-0.135l-0.229,-0.137l-0.225,-0.14l-0.226,-0.142l-0.222,-0.145l-0.222,-0.147l-0.216,-0.148l-0.219,-0.152l-0.241,-0.175l-0.208,-0.154l-0.208,-0.157l-0.206,-0.16l-0.206,-0.163l-0.228,-0.186l-0.198,-0.167l-0.195,-0.166l-0.192,-0.169l-0.224,-0.199l-0.186,-0.174l-0.188,-0.175l-0.21,-0.204l-0.18,-0.178l-0.178,-0.181l-0.176,-0.182l-0.202,-0.213l-0.168,-0.183l-0.167,-0.185l-0.196,-0.223l-0.191,-0.224l-0.157,-0.189l-0.157,-0.193l-0.182,-0.229l-0.15,-0.194l-0.149,-0.195l-0.174,-0.234l-0.171,-0.238l-0.138,-0.198l-0.167,-0.241l-0.132,-0.202l-0.133,-0.2l-0.182,-0.29l-0.124,-0.203l-0.124,-0.205l-0.146,-0.249l-0.143,-0.253l-0.114,-0.208l-0.138,-0.253l-0.132,-0.258l-0.106,-0.21l-0.126,-0.257l-0.124,-0.261l-0.097,-0.213l-0.118,-0.261l-0.111,-0.263l-0.09,-0.214l-0.108,-0.266l-0.104,-0.267l-0.099,-0.266l-0.096,-0.269l-0.093,-0.27l-0.071,-0.217l-0.088,-0.271l-0.081,-0.27l-0.081,-0.273l-0.073,-0.274l-0.059,-0.218l-0.07,-0.274l-0.079,-0.331l-0.059,-0.275l-0.047,-0.219l-0.055,-0.277l-0.052,-0.277l-0.047,-0.276l-0.045,-0.277l-0.041,-0.278l-0.037,-0.278l-0.034,-0.278l-0.03,-0.277l-0.033,-0.335l-0.02,-0.278l-0.016,-0.222l-0.016,-0.278l-0.016,-0.334l-0.007,-0.278l-0.005,-0.222l-0.003,-0.278l0,-333.031l0.003,-0.278l0.005,-0.221l0.007,-0.278l0.016,-0.335l0.016,-0.278l0.016,-0.221l0.02,-0.279l0.033,-0.335l0.03,-0.277l0.034,-0.278l0.037,-0.278l0.041,-0.277l0.045,-0.277l0.048,-0.278l0.051,-0.276l0.055,-0.276l0.047,-0.22l0.059,-0.275l0.079,-0.33l0.07,-0.275l0.059,-0.218l0.073,-0.274l0.081,-0.272l0.081,-0.271l0.088,-0.271l0.072,-0.218l0.092,-0.269l0.095,-0.268l0.1,-0.267l0.104,-0.268l0.108,-0.265l0.089,-0.213l0.112,-0.264l0.119,-0.262l0.096,-0.212l0.123,-0.26l0.127,-0.259l0.106,-0.209l0.131,-0.256l0.14,-0.256l0.113,-0.207l0.142,-0.251l0.147,-0.251l0.124,-0.204l0.124,-0.204l0.182,-0.29l0.133,-0.2l0.132,-0.202l0.167,-0.24l0.138,-0.199l0.171,-0.238l0.174,-0.234l0.149,-0.195l0.15,-0.194l0.182,-0.229l0.157,-0.193l0.158,-0.19l0.19,-0.222l0.194,-0.222l0.169,-0.186l0.168,-0.184l0.203,-0.215l0.177,-0.181l0.174,-0.178l0.182,-0.179l0.212,-0.207l0.186,-0.173l0.186,-0.173l0.222,-0.198l0.192,-0.169l0.197,-0.168l0.198,-0.167l0.23,-0.187l0.204,-0.162l0.204,-0.159l0.21,-0.158l0.21,-0.156l0.239,-0.172l0.216,-0.151l0.221,-0.152l0.22,-0.145l0.219,-0.143l0.229,-0.144l0.225,-0.14l0.229,-0.136l0.231,-0.136l0.235,-0.133l0.234,-0.13l0.262,-0.14l0.216,-0.112l0.24,-0.122l0.27,-0.131l0.223,-0.106l0.249,-0.115l0.249,-0.111l0.249,-0.107l0.258,-0.107l0.254,-0.102l0.254,-0.098l0.241,-0.09l0.263,-0.096l0.26,-0.089l0.262,-0.088l0.269,-0.085l0.264,-0.08l0.269,-0.078l0.255,-0.071l0.269,-0.071l0.275,-0.069l0.258,-0.061l0.271,-0.061l0.28,-0.06l0.265,-0.052l0.279,-0.052l0.281,-0.048l0.276,-0.044l0.281,-0.041l0.273,-0.037l0.273,-0.033l0.283,-0.031l0.285,-0.027l0.279,-0.023l0.286,-0.02l0.284,-0.016l0.284,-0.013l0.284,-0.008l0.281,-0.006l0.258,-0.002l232.666,0l0.258,0.002ZM29.286,25.954l-0.074,0.001l-0.047,0.001l-0.045,0.001l-0.044,0.002l-0.044,0.003l-0.038,0.002l-0.045,0.004l-0.04,0.004l-0.037,0.004l-0.047,0.006l-0.047,0.006l-0.039,0.006l-0.041,0.006l-0.035,0.006l-0.034,0.006l-0.048,0.01l-0.032,0.007l-0.038,0.008l-0.051,0.012l-0.033,0.009l-0.035,0.009l-0.051,0.014l-0.034,0.01l-0.037,0.011l-0.033,0.011l-0.034,0.011l-0.037,0.013l-0.03,0.011l-0.052,0.019l-0.039,0.015l-0.035,0.014l-0.031,0.013l-0.037,0.016l-0.036,0.016l-0.032,0.015l-0.058,0.027l-0.012,0.006l-0.033,0.017l-0.062,0.032l-0.011,0.006l-0.035,0.019l-0.035,0.02l-0.034,0.02l-0.037,0.022l-0.036,0.022l-0.034,0.022l-0.038,0.025l-0.038,0.025l-0.033,0.022l-0.038,0.027l-0.011,0.008l-0.036,0.026l-0.036,0.028l-0.038,0.03l-0.038,0.03l-0.008,0.006l-0.037,0.031l-0.037,0.032l-0.039,0.034l-0.008,0.007l-0.037,0.035l-0.04,0.037l-0.007,0.007l-0.037,0.036l-0.04,0.041l-0.039,0.04l-0.008,0.008l-0.039,0.043l-0.038,0.042l-0.009,0.01l-0.009,0.011l-0.038,0.045l-0.037,0.046l-0.009,0.012l-0.038,0.049l-0.039,0.05l-0.01,0.014l-0.008,0.011l-0.038,0.054l-0.009,0.013l-0.036,0.055l-0.032,0.048l-0.024,0.041l-0.037,0.06l-0.009,0.016l-0.011,0.018l-0.035,0.064l-0.009,0.017l-0.009,0.019l-0.035,0.068l-0.01,0.02l-0.01,0.021l-0.032,0.071l-0.01,0.022l-0.009,0.022l-0.032,0.075l-0.01,0.025l-0.009,0.023l-0.01,0.026l-0.009,0.027l-0.01,0.028l-0.026,0.08l-0.009,0.029l-0.01,0.03l-0.008,0.03l-0.009,0.031l-0.023,0.087l-0.005,0.02l-0.006,0.028l-0.019,0.091l-0.008,0.037l-0.007,0.038l-0.007,0.038l-0.006,0.041l-0.006,0.041l-0.006,0.041l-0.005,0.043l-0.004,0.037l-0.003,0.042l-0.007,0.104l-0.003,0.043l-0.001,0.049l-0.003,0.108l0,0.052l0,332.807l0,0.053l0.004,0.156l0.003,0.044l0.007,0.103l0.003,0.042l0.004,0.037l0.005,0.043l0.006,0.042l0.006,0.041l0.006,0.039l0.007,0.039l0.007,0.038l0.007,0.037l0.02,0.092l0.006,0.027l0.005,0.02l0.023,0.087l0.009,0.031l0.008,0.03l0.01,0.03l0.009,0.029l0.027,0.082l0.009,0.026l0.009,0.026l0.01,0.027l0.01,0.025l0.009,0.023l0.031,0.074l0.01,0.024l0.011,0.023l0.031,0.069l0.01,0.02l0.011,0.022l0.034,0.067l0.008,0.017l0.011,0.02l0.034,0.063l0.01,0.016l0.01,0.018l0.037,0.06l0.024,0.041l0.032,0.048l0.036,0.055l0.009,0.013l0.038,0.054l0.008,0.012l0.01,0.013l0.039,0.05l0.038,0.049l0.009,0.012l0.037,0.046l0.039,0.047l0.008,0.009l0.008,0.009l0.039,0.043l0.039,0.043l0.01,0.01l0.039,0.04l0.036,0.037l0.039,0.038l0.009,0.009l0.038,0.036l0.037,0.034l0.006,0.006l0.039,0.034l0.039,0.033l0.037,0.031l0.01,0.008l0.036,0.029l0.036,0.028l0.038,0.029l0.039,0.028l0.008,0.006l0.036,0.025l0.037,0.026l0.036,0.024l0.036,0.023l0.036,0.023l0.036,0.022l0.037,0.022l0.034,0.02l0.035,0.02l0.038,0.021l0.009,0.005l0.058,0.03l0.036,0.018l0.012,0.006l0.058,0.027l0.035,0.017l0.033,0.014l0.034,0.015l0.037,0.015l0.032,0.013l0.036,0.014l0.055,0.021l0.033,0.011l0.034,0.012l0.031,0.011l0.036,0.011l0.037,0.011l0.034,0.01l0.051,0.014l0.035,0.01l0.037,0.009l0.047,0.011l0.034,0.008l0.036,0.007l0.048,0.01l0.037,0.007l0.036,0.006l0.037,0.006l0.039,0.005l0.047,0.007l0.043,0.005l0.038,0.004l0.043,0.004l0.045,0.004l0.038,0.002l0.044,0.003l0.048,0.002l0.041,0.001l0.043,0.001l0.078,0.001l232.54,0l0.078,-0.001l0.044,-0.001l0.04,-0.001l0.048,-0.002l0.044,-0.003l0.038,-0.002l0.046,-0.004l0.043,-0.004l0.037,-0.004l0.043,-0.005l0.039,-0.006l0.046,-0.006l0.038,-0.006l0.035,-0.006l0.049,-0.009l0.037,-0.008l0.036,-0.007l0.034,-0.008l0.047,-0.011l0.037,-0.009l0.036,-0.01l0.05,-0.014l0.035,-0.01l0.036,-0.011l0.036,-0.011l0.032,-0.011l0.033,-0.012l0.033,-0.011l0.056,-0.021l0.035,-0.014l0.032,-0.013l0.038,-0.015l0.033,-0.015l0.033,-0.014l0.035,-0.017l0.035,-0.016l0.034,-0.017l0.061,-0.031l0.035,-0.017l0.008,-0.005l0.038,-0.021l0.035,-0.02l0.034,-0.02l0.037,-0.022l0.036,-0.022l0.037,-0.023l0.035,-0.023l0.036,-0.024l0.038,-0.026l0.035,-0.025l0.009,-0.006l0.038,-0.028l0.039,-0.029l0.035,-0.028l0.036,-0.029l0.011,-0.008l0.036,-0.031l0.039,-0.033l0.009,-0.008l0.035,-0.032l0.068,-0.062l0.009,-0.008l0.009,-0.009l0.038,-0.038l0.037,-0.037l0.039,-0.04l0.009,-0.01l0.039,-0.043l0.04,-0.043l0.007,-0.009l0.008,-0.009l0.039,-0.047l0.038,-0.046l0.009,-0.012l0.038,-0.049l0.038,-0.05l0.01,-0.013l0.008,-0.012l0.038,-0.054l0.009,-0.013l0.009,-0.013l0.065,-0.1l0.009,-0.015l0.01,-0.016l0.036,-0.06l0.011,-0.018l0.009,-0.016l0.009,-0.016l0.035,-0.067l0.034,-0.064l0.01,-0.02l0.011,-0.022l0.009,-0.02l0.032,-0.069l0.01,-0.023l0.01,-0.024l0.024,-0.056l0.024,-0.066l0.027,-0.07l0.004,-0.009l0.026,-0.082l0.01,-0.029l0.009,-0.03l0.009,-0.03l0.008,-0.031l0.023,-0.087l0.005,-0.02l0.006,-0.027l0.02,-0.092l0.007,-0.037l0.007,-0.038l0.007,-0.039l0.006,-0.039l0.006,-0.041l0.006,-0.042l0.004,-0.035l0.004,-0.041l0.008,-0.102l0.004,-0.047l0.002,-0.044l0.001,-0.048l0.002,-0.052l0,-333.024l-0.002,-0.052l-0.001,-0.049l-0.002,-0.043l-0.004,-0.048l-0.008,-0.103l-0.004,-0.04l-0.004,-0.035l-0.006,-0.041l-0.006,-0.041l-0.006,-0.041l-0.007,-0.038l-0.007,-0.038l-0.007,-0.037l-0.02,-0.091l-0.006,-0.028l-0.005,-0.02l-0.023,-0.087l-0.008,-0.031l-0.009,-0.03l-0.009,-0.03l-0.01,-0.029l-0.026,-0.08l-0.004,-0.012l-0.027,-0.069l-0.024,-0.066l-0.024,-0.057l-0.01,-0.022l-0.01,-0.022l-0.032,-0.071l-0.01,-0.021l-0.01,-0.02l-0.01,-0.02l-0.035,-0.067l-0.033,-0.063l-0.01,-0.018l-0.01,-0.018l-0.01,-0.016l-0.036,-0.06l-0.01,-0.016l-0.009,-0.014l-0.065,-0.101l-0.009,-0.013l-0.009,-0.013l-0.038,-0.054l-0.008,-0.011l-0.01,-0.014l-0.038,-0.05l-0.038,-0.049l-0.009,-0.012l-0.038,-0.046l-0.037,-0.045l-0.01,-0.011l-0.009,-0.01l-0.038,-0.042l-0.039,-0.043l-0.008,-0.008l-0.038,-0.04l-0.041,-0.041l-0.036,-0.036l-0.007,-0.007l-0.011,-0.009l-0.068,-0.063l-0.037,-0.034l-0.009,-0.007l-0.037,-0.032l-0.036,-0.031l-0.008,-0.006l-0.039,-0.03l-0.038,-0.03l-0.036,-0.028l-0.036,-0.026l-0.011,-0.008l-0.038,-0.027l-0.032,-0.022l-0.039,-0.025l-0.038,-0.025l-0.034,-0.022l-0.036,-0.022l-0.037,-0.022l-0.034,-0.02l-0.035,-0.02l-0.035,-0.019l-0.011,-0.006l-0.038,-0.02l-0.058,-0.029l-0.034,-0.017l-0.035,-0.016l-0.032,-0.015l-0.036,-0.016l-0.036,-0.016l-0.032,-0.013l-0.035,-0.014l-0.039,-0.015l-0.052,-0.019l-0.029,-0.011l-0.037,-0.013l-0.035,-0.011l-0.033,-0.011l-0.036,-0.011l-0.035,-0.01l-0.05,-0.014l-0.036,-0.009l-0.033,-0.009l-0.051,-0.012l-0.037,-0.008l-0.033,-0.007l-0.037,-0.008l-0.046,-0.008l-0.035,-0.006l-0.041,-0.006l-0.046,-0.007l-0.039,-0.005l-0.047,-0.006l-0.037,-0.004l-0.039,-0.004l-0.046,-0.004l-0.038,-0.002l-0.044,-0.003l-0.044,-0.002l-0.044,-0.001l-0.047,-0.001l-0.075,-0.001l-232.54,0Z" style="fill:#000;"/><path d="M169.303,310.577l-47.494,0l0,-161.878l-44.102,0l67.849,-67.849l67.849,67.849l-44.102,0l0,161.878Z" style="fill:#000;"/></svg>