<?xml version="1.0" standalone="no"?><!DOCTYPE svg PUBLIC "-//W3C//DTD SVG 1.1//EN" "http://www.w3.org/Graphics/SVG/1.1/DTD/svg11.dtd"><svg width="100%" height="100%" viewBox="0 0 306 409" version="1.1" xmlns="http://www.w3.org/2000/svg" xmlns:xlink="http://www.w3.org/1999/xlink" xml:space="preserve" style="fill-rule:evenodd;clip-rule:evenodd;stroke-linejoin:round;stroke-miterlimit:1.41421;"><g><path d="M263.982,31.603c5.915,0 10.717,4.802 10.717,10.716l0,355.433c0,5.914 -4.802,10.716 -10.717,10.716l-246.475,0c-5.915,0 -10.717,-4.802 -10.717,-10.716l0,-355.433c0,-5.914 4.802,-10.716 10.717,-10.716l246.475,0ZM140.744,158.293c34.077,0 61.743,27.666 61.743,61.742c0,34.077 -27.666,61.743 -61.743,61.743c-34.076,0 -61.742,-27.666 -61.742,-61.743c0,-34.076 27.666,-61.742 61.742,-61.742Z" style="fill:#000;"/><text x="101.851px" y="266.73px" style="font-family:Lora;font-size:147.782px;font-weight:700;fill:#000;">+</text><path d="M295.271,6.713c5.915,0 10.717,4.802 10.717,10.716l0,355.433c0,5.915 -4.802,10.716 -10.717,10.716l-5.459,0l0,-349.973c0,-5.914 -4.802,-10.716 -10.717,-10.716l-241.016,0l0,-5.46c0,-5.914 4.801,-10.716 10.716,-10.716l246.476,0Z" style="fill:#000;"/><path d="M48.251,6.957l0.342,0.014l0.342,0.026l0.341,0.039l0.339,0.051l0.338,0.063l0.334,0.076l0.332,0.087l0.328,0.099l0.325,0.111l0.32,0.123l0.316,0.134l0.311,0.146l0.305,0.156l0.299,0.168l0.293,0.178l0.287,0.189l0.279,0.199l0.272,0.209l0.264,0.218l0.257,0.228l0.248,0.237l0.239,0.246l0.23,0.255l0.221,0.262l0.211,0.27l0.201,0.278l0.191,0.285l0.181,0.292l0.17,0.297l0.16,0.304l0.148,0.31l0.137,0.314l0.125,0.319l0.114,0.324l0.102,0.328l0.09,0.331l0.078,0.334l0.066,0.336l0.054,0.339l0.042,0.34l0.029,0.342l0.017,0.343l0.005,0.343l-0.008,0.343l-0.02,0.342l-0.033,0.342l-0.045,0.34l-0.057,0.338l-0.069,0.336l-0.082,0.333l-0.093,0.33l-0.105,0.327l-0.117,0.322l-0.128,0.318l-0.14,0.313l-0.151,0.308l-0.163,0.303l-0.173,0.296l-0.183,0.29l-0.194,0.283l-0.204,0.276l-0.214,0.268l-0.223,0.26l-0.232,0.252l-0.242,0.244l-0.25,0.235l-0.259,0.225l-0.266,0.216l-31.579,24.675l-0.274,0.206l-0.282,0.197l-0.288,0.185l-0.295,0.176l-0.301,0.165l-0.306,0.153l-0.312,0.143l-0.317,0.131l-0.322,0.12l-0.325,0.108l-0.33,0.096l-0.332,0.084l-0.336,0.072l-0.337,0.06l-0.34,0.048l-0.341,0.035l-0.342,0.024l-0.343,0.01l-0.343,-0.001l-0.343,-0.014l-0.342,-0.027l-0.341,-0.038l-0.339,-0.051l-0.337,-0.064l-0.335,-0.075l-0.332,-0.087l-0.328,-0.1l-0.325,-0.111l-0.32,-0.122l-0.316,-0.135l-0.31,-0.145l-0.305,-0.157l-0.3,-0.167l-0.293,-0.179l-0.286,-0.188l-0.28,-0.199l-0.272,-0.209l-0.264,-0.219l-0.256,-0.228l-0.248,-0.237l-0.24,-0.246l-0.23,-0.254l-0.221,-0.263l-0.211,-0.27l-0.201,-0.278l-0.191,-0.284l-0.181,-0.292l-0.17,-0.298l-0.159,-0.304l-0.148,-0.309l-0.137,-0.315l-0.126,-0.319l-0.114,-0.324l-0.102,-0.327l-0.09,-0.331l-0.078,-0.334l-0.066,-0.337l-0.054,-0.338l-0.042,-0.341l-0.029,-0.342l-0.017,-0.342l-0.004,-0.343l0.007,-0.343l0.021,-0.343l0.032,-0.341l0.045,-0.34l0.057,-0.338l0.069,-0.336l0.082,-0.334l0.093,-0.33l0.105,-0.326l0.117,-0.323l0.129,-0.318l0.14,-0.313l0.151,-0.308l0.162,-0.302l0.173,-0.296l0.183,-0.29l0.194,-0.283l0.204,-0.276l0.214,-0.268l0.223,-0.261l0.233,-0.252l0.241,-0.243l0.25,-0.235l0.259,-0.226l0.266,-0.216l31.58,-24.674l0.274,-0.207l0.281,-0.196l0.288,-0.186l0.295,-0.175l0.301,-0.165l0.307,-0.154l0.312,-0.142l0.317,-0.132l0.321,-0.119l0.326,-0.108l0.329,-0.096l0.333,-0.085l0.335,-0.072l0.338,-0.06l0.339,-0.047l0.341,-0.036l0.343,-0.023l0.343,-0.011l0.343,0.002Z" style="fill:#000;"/></g></svg>